<svg xmlns="http://www.w3.org/2000/svg" viewBox="0 0 64 64" fill="none">
  <defs>
    <linearGradient id="grad3" x1="0%" y1="0%" x2="100%" y2="100%">
      <stop offset="0%" style="stop-color:#818cf8"/>
      <stop offset="100%" style="stop-color:#22d3ee"/>
    </linearGradient>
  </defs>
  <!-- Puzzle piece representing customization -->
  <path d="M14 20C14 17 17 14 20 14H26C26 10 29 8 32 8C35 8 38 10 38 14H44C47 14 50 17 50 20V26C54 26 56 29 56 32C56 35 54 38 50 38V44C50 47 47 50 44 50H38C38 54 35 56 32 56C29 56 26 54 26 50H20C17 50 14 47 14 44V38C10 38 8 35 8 32C8 29 10 26 14 26V20Z" 
        stroke="url(#grad3)" stroke-width="2.5" fill="none"/>
  <!-- Center connection point -->
  <circle cx="32" cy="32" r="6" stroke="url(#grad3)" stroke-width="2" fill="none"/>
  <circle cx="32" cy="32" r="2" fill="url(#grad3)"/>
</svg>
