<svg xmlns="http://www.w3.org/2000/svg" viewBox="0 0 64 64" fill="none">
  <defs>
    <linearGradient id="grad4" x1="0%" y1="0%" x2="100%" y2="100%">
      <stop offset="0%" style="stop-color:#818cf8"/>
      <stop offset="100%" style="stop-color:#22d3ee"/>
    </linearGradient>
  </defs>
  <!-- Handshake/partnership symbol -->
  <path d="M12 28C12 28 18 22 26 22C30 22 32 24 32 24" stroke="url(#grad4)" stroke-width="2.5" stroke-linecap="round" fill="none"/>
  <path d="M52 28C52 28 46 22 38 22C34 22 32 24 32 24" stroke="url(#grad4)" stroke-width="2.5" stroke-linecap="round" fill="none"/>
  <!-- Clasped hands -->
  <path d="M20 32L28 40L36 32L44 40" stroke="url(#grad4)" stroke-width="2.5" stroke-linecap="round" stroke-linejoin="round" fill="none"/>
  <!-- Base support arc -->
  <path d="M16 48C16 48 24 44 32 44C40 44 48 48 48 48" stroke="url(#grad4)" stroke-width="2.5" stroke-linecap="round" fill="none"/>
  <!-- Connection dots -->
  <circle cx="20" cy="32" r="3" fill="url(#grad4)"/>
  <circle cx="44" cy="40" r="3" fill="url(#grad4)"/>
  <!-- Top beacon -->
  <circle cx="32" cy="12" r="4" stroke="url(#grad4)" stroke-width="2" fill="none"/>
  <circle cx="32" cy="12" r="1.5" fill="url(#grad4)"/>
</svg>
