<svg id="Layer_1" data-name="Layer 1" xmlns="http://www.w3.org/2000/svg" xmlns:xlink="http://www.w3.org/1999/xlink" viewBox="0 0 292.05 125.15"><defs><style>.cls-1{fill:#0073bd;}.cls-2{fill:url(#radial-gradient);}.cls-3{fill:url(#linear-gradient);}.cls-4{fill:url(#linear-gradient-2);}</style><radialGradient id="radial-gradient" cx="234.53" cy="157.2" r="44.13" gradientUnits="userSpaceOnUse"><stop offset="0.1" stop-color="#78c585"/><stop offset="1" stop-color="#33979d"/></radialGradient><linearGradient id="linear-gradient" x1="293.59" y1="197.57" x2="394.18" y2="197.57" gradientUnits="userSpaceOnUse"><stop offset="0.1" stop-color="#277ebd"/><stop offset="1" stop-color="#3baed9"/></linearGradient><linearGradient id="linear-gradient-2" x1="232.84" y1="193.29" x2="320.4" y2="193.29" xlink:href="#linear-gradient"/></defs><path class="cls-1" d="M146.35,250a3.41,3.41,0,0,1-2.38-.91,3.44,3.44,0,0,1,0-4.85,3.45,3.45,0,0,1,2.38-.91,3.38,3.38,0,0,1,2.42.91,3.54,3.54,0,0,1,0,4.85A3.34,3.34,0,0,1,146.35,250Zm-2.54,24.78v-22h5.12v22Z" transform="translate(-142.97 -158.5)"/><path class="cls-1" d="M155.42,274.76v-22h5v3.06h.75a6.53,6.53,0,0,1,2.09-2.35,7.76,7.76,0,0,1,4.59-1.11,8.67,8.67,0,0,1,4.49,1.15,8.1,8.1,0,0,1,3,3.2,10.27,10.27,0,0,1,1.09,4.85v13.17h-5.12V262a5.44,5.44,0,0,0-1.31-4,5.05,5.05,0,0,0-3.72-1.31,5.35,5.35,0,0,0-4.27,1.8,7.66,7.66,0,0,0-1.55,5.14v11.12Z" transform="translate(-142.97 -158.5)"/><path class="cls-1" d="M190.52,274.76a4.59,4.59,0,0,1-3.41-1.27,4.66,4.66,0,0,1-1.26-3.45V257h-5.74v-4.22h5.74v-7.08H191v7.08h6.32V257H191V269.2c0,.89.42,1.33,1.25,1.33h4.4v4.23Z" transform="translate(-142.97 -158.5)"/><path class="cls-1" d="M211.73,275.38a11.74,11.74,0,0,1-5.8-1.4,9.83,9.83,0,0,1-3.92-4,12.29,12.29,0,0,1-1.4-6v-.53a12.38,12.38,0,0,1,1.38-6,9.85,9.85,0,0,1,3.87-3.94,11.54,11.54,0,0,1,5.74-1.4,11,11,0,0,1,5.6,1.4,9.67,9.67,0,0,1,3.74,3.94,12.52,12.52,0,0,1,1.33,5.92v1.82h-16.5a5.57,5.57,0,0,0,1.83,4.14,6.18,6.18,0,0,0,4.27,1.55,5.34,5.34,0,0,0,3.69-1.09,7.33,7.33,0,0,0,1.82-2.47l4.23,2.18a13.43,13.43,0,0,1-1.8,2.56,9.68,9.68,0,0,1-3.14,2.31A11.21,11.21,0,0,1,211.73,275.38Zm-5.91-14h11.25a4.91,4.91,0,0,0-1.67-3.47,5.75,5.75,0,0,0-9.58,3.47Z" transform="translate(-142.97 -158.5)"/><path class="cls-1" d="M226.45,263.86v-.67a12,12,0,0,1,1.38-5.93,9.55,9.55,0,0,1,3.7-3.78,10,10,0,0,1,5.07-1.32,8.28,8.28,0,0,1,4.73,1.12,7.62,7.62,0,0,1,2.38,2.4h.76v-2.89h5v26.15a4.72,4.72,0,0,1-1.24,3.45,4.56,4.56,0,0,1-3.38,1.26H230.06v-4.44h13c.86,0,1.29-.45,1.29-1.34v-6.36h-.76a7.89,7.89,0,0,1-1.33,1.54,7,7,0,0,1-2.22,1.31,9.85,9.85,0,0,1-3.47.53,10.13,10.13,0,0,1-5.07-1.31,9.61,9.61,0,0,1-3.7-3.78A12,12,0,0,1,226.45,263.86ZM238,270.4a6.35,6.35,0,0,0,4.58-1.76,6.48,6.48,0,0,0,1.82-4.91v-.45a6.52,6.52,0,0,0-1.8-4.93,6.34,6.34,0,0,0-4.6-1.74,6.17,6.17,0,0,0-6.45,6.67v.45A6.2,6.2,0,0,0,238,270.4Z" transform="translate(-142.97 -158.5)"/><path class="cls-1" d="M256,274.76v-22h5v2.53h.76a3.44,3.44,0,0,1,1.64-2,5.68,5.68,0,0,1,2.76-.62h2.67v4.53H266a5.38,5.38,0,0,0-3.6,1.18,4.53,4.53,0,0,0-1.38,3.63v12.72Z" transform="translate(-142.97 -158.5)"/><path class="cls-1" d="M279.56,275.38a10.26,10.26,0,0,1-4.18-.82,7,7,0,0,1-3-2.38,6.55,6.55,0,0,1-1.08-3.83,6.25,6.25,0,0,1,1.08-3.73,6.73,6.73,0,0,1,3-2.29,11.45,11.45,0,0,1,4.36-.78h6.36v-1.34a3.88,3.88,0,0,0-1.07-2.82,4.49,4.49,0,0,0-3.34-1.09,4.8,4.8,0,0,0-3.36,1.05A4.93,4.93,0,0,0,276.9,260l-4.72-1.56a9.26,9.26,0,0,1,1.71-3.16A8.42,8.42,0,0,1,277,253a11.77,11.77,0,0,1,4.8-.87,10,10,0,0,1,6.79,2.16,7.87,7.87,0,0,1,2.46,6.25v8.63c0,.89.42,1.33,1.25,1.33h1.87v4.23h-3.61A4.15,4.15,0,0,1,288,274a2.63,2.63,0,0,1-1-2.18v-.09h-.76a7.84,7.84,0,0,1-.93,1.51,5.28,5.28,0,0,1-2,1.54A8.63,8.63,0,0,1,279.56,275.38Zm.85-4.18a5.88,5.88,0,0,0,4.13-1.45,5,5,0,0,0,1.61-3.89v-.44h-6a4.61,4.61,0,0,0-2.67.71,2.38,2.38,0,0,0-1,2.09,2.6,2.6,0,0,0,1.06,2.16A4.69,4.69,0,0,0,280.41,271.2Z" transform="translate(-142.97 -158.5)"/><path class="cls-1" d="M305.23,274.76a4.57,4.57,0,0,1-3.4-1.27,4.63,4.63,0,0,1-1.27-3.45V257h-5.74v-4.22h5.74v-7.08h5.11v7.08H312V257h-6.32V269.2c0,.89.42,1.33,1.25,1.33h4.4v4.23Z" transform="translate(-142.97 -158.5)"/><path class="cls-1" d="M326.44,275.38a11.77,11.77,0,0,1-5.8-1.4,9.75,9.75,0,0,1-3.91-4,12.18,12.18,0,0,1-1.41-6v-.53a12.38,12.38,0,0,1,1.38-6,9.85,9.85,0,0,1,3.87-3.94,11.56,11.56,0,0,1,5.74-1.4,11,11,0,0,1,5.61,1.4,9.71,9.71,0,0,1,3.73,3.94,12.52,12.52,0,0,1,1.34,5.92v1.82H320.48a5.57,5.57,0,0,0,1.83,4.14,6.18,6.18,0,0,0,4.27,1.55,5.34,5.34,0,0,0,3.69-1.09,7.33,7.33,0,0,0,1.82-2.47l4.23,2.18a13.43,13.43,0,0,1-1.8,2.56,9.57,9.57,0,0,1-3.14,2.31A11.18,11.18,0,0,1,326.44,275.38Zm-5.91-14h11.25a4.91,4.91,0,0,0-1.67-3.47,5.64,5.64,0,0,0-3.84-1.29,5.74,5.74,0,0,0-3.92,1.29A5.67,5.67,0,0,0,320.53,261.37Z" transform="translate(-142.97 -158.5)"/><path class="cls-1" d="M342.06,274.76V243.62h10l6,27.54h.76L365,243.62h10v31.14h-5.16V247.49H369L363,274.76h-8.89L348,247.49h-.76v27.27Z" transform="translate(-142.97 -158.5)"/><path class="cls-1" d="M381.11,274.76V243.62h10.23l7.34,27.54h.71V243.62h5.29v31.14H394.5l-7.34-27.53h-.76v27.53Z" transform="translate(-142.97 -158.5)"/><path class="cls-1" d="M408.64,274.76l8.54-31.14h9.3L435,274.76H429.5l-1.87-7.12H416l-1.87,7.12Zm8.63-12h9.12L422.21,247h-.76Z" transform="translate(-142.97 -158.5)"/><path class="cls-2" d="M273.55,183.26l-12.33,12.33-16.15-16.15-46.38,46.39a8.72,8.72,0,1,1-12.33-12.33l52.44-52.45a9,9,0,0,1,12.54,0Z" transform="translate(-142.97 -158.5)"/><path class="cls-3" d="M394.18,232.58H376.47l-7.61-43.2L328.34,229.9a9,9,0,0,1-12.54,0l-22.21-22.21,12.33-12.33,16.15,16.15,46.38-46.39A8.71,8.71,0,0,1,383.32,171Z" transform="translate(-142.97 -158.5)"/><path class="cls-4" d="M320.4,159.36l-4.35,16.21-4.34,16.2-5.69-5.7-38.73,38.72a8.31,8.31,0,0,1-10,1.33A8.64,8.64,0,0,1,255,224.5l-22.2-22.2L245.16,190l16.15,16.15,32.38-32.37-5.7-5.7,16.2-4.35Z" transform="translate(-142.97 -158.5)"/></svg>