<svg id="Layer_1" data-name="Layer 1" xmlns="http://www.w3.org/2000/svg" xmlns:xlink="http://www.w3.org/1999/xlink" viewBox="0 0 279.31 172.34"><defs><style>.cls-1{fill:#0073bd;}.cls-2{fill:url(#linear-gradient);}.cls-3{fill:url(#linear-gradient-2);}.cls-4{fill:url(#linear-gradient-3);}.cls-5{fill:url(#linear-gradient-4);}.cls-6{fill:url(#linear-gradient-5);}.cls-7{fill:url(#linear-gradient-6);}.cls-8{fill:url(#linear-gradient-7);}</style><linearGradient id="linear-gradient" x1="199.91" y1="103.43" x2="125.44" y2="28.96" gradientUnits="userSpaceOnUse"><stop offset="0.1" stop-color="#277ebd"/><stop offset="1" stop-color="#3baed9"/></linearGradient><linearGradient id="linear-gradient-2" x1="137.25" y1="99.8" x2="153.7" y2="99.8" xlink:href="#linear-gradient"/><linearGradient id="linear-gradient-3" x1="117.79" y1="225.33" x2="167.81" y2="225.33" gradientTransform="matrix(0.71, 0.96, -0.71, 0.96, 194.06, -133.96)" gradientUnits="userSpaceOnUse"><stop offset="0.1" stop-color="#78c585"/><stop offset="1" stop-color="#33979d"/></linearGradient><linearGradient id="linear-gradient-4" x1="120.89" y1="228.42" x2="170.91" y2="228.42" gradientTransform="matrix(0.71, 0.36, -0.71, 0.36, 156.23, 46.8)" gradientUnits="userSpaceOnUse"><stop offset="0" stop-color="#33979d"/><stop offset="1" stop-color="#78c585"/></linearGradient><linearGradient id="linear-gradient-5" x1="68.79" y1="30.97" x2="153.56" y2="30.97" gradientTransform="matrix(1, 0, 0, 1, 0, 0)" xlink:href="#linear-gradient-3"/><linearGradient id="linear-gradient-6" x1="127.07" y1="125.91" x2="143.55" y2="125.91" gradientTransform="translate(128.66 -58.8) rotate(45)" xlink:href="#linear-gradient-3"/><linearGradient id="linear-gradient-7" x1="143.55" y1="125.91" x2="160.03" y2="125.91" gradientTransform="translate(133.49 -70.46) rotate(45)" xlink:href="#linear-gradient-3"/></defs><path class="cls-1" d="M38.67,257.43a3.36,3.36,0,0,1-2.31-.88,3.36,3.36,0,0,1,0-4.7,3.36,3.36,0,0,1,2.31-.88,3.3,3.3,0,0,1,2.34.88,3.43,3.43,0,0,1,0,4.7A3.3,3.3,0,0,1,38.67,257.43Zm-2.46,24V260.14h4.95V281.4Z" transform="translate(-35.4 -117.67)"/><path class="cls-1" d="M47.45,281.4V260.14h4.86v3H53a6.21,6.21,0,0,1,2-2.28,7.49,7.49,0,0,1,4.44-1.08,8.33,8.33,0,0,1,4.34,1.12,7.79,7.79,0,0,1,3,3.1,9.87,9.87,0,0,1,1,4.69V281.4H62.9V269.05a5.25,5.25,0,0,0-1.27-3.85,4.87,4.87,0,0,0-3.6-1.27,5.17,5.17,0,0,0-4.13,1.74,7.4,7.4,0,0,0-1.51,5V281.4Z" transform="translate(-35.4 -117.67)"/><path class="cls-1" d="M81.4,281.4a4.44,4.44,0,0,1-3.29-1.23,4.5,4.5,0,0,1-1.23-3.33V264.23H71.33v-4.09h5.55V253.3h5v6.84h6.11v4.09H81.83V276c0,.86.4,1.29,1.21,1.29H87.3v4.09Z" transform="translate(-35.4 -117.67)"/><path class="cls-1" d="M101.93,282a11.4,11.4,0,0,1-5.62-1.35,9.54,9.54,0,0,1-3.78-3.83A11.8,11.8,0,0,1,91.17,271v-.52a12,12,0,0,1,1.33-5.81,9.48,9.48,0,0,1,3.75-3.81,11.18,11.18,0,0,1,5.55-1.35,10.58,10.58,0,0,1,5.42,1.35,9.37,9.37,0,0,1,3.62,3.81,12.12,12.12,0,0,1,1.29,5.72v1.77h-16a5.39,5.39,0,0,0,1.77,4,5.93,5.93,0,0,0,4.13,1.51,5.13,5.13,0,0,0,3.57-1.06,7.26,7.26,0,0,0,1.77-2.39l4.08,2.11a12.87,12.87,0,0,1-1.74,2.48,9.57,9.57,0,0,1-3,2.24A11,11,0,0,1,101.93,282Zm-5.72-13.56h10.88a4.73,4.73,0,0,0-1.61-3.35,5.49,5.49,0,0,0-3.72-1.25A5.55,5.55,0,0,0,98,265.09,5.4,5.4,0,0,0,96.21,268.44Z" transform="translate(-35.4 -117.67)"/><path class="cls-1" d="M116.17,270.86v-.65a11.64,11.64,0,0,1,1.34-5.75,9.29,9.29,0,0,1,3.57-3.65,9.74,9.74,0,0,1,4.91-1.27,8.16,8.16,0,0,1,4.58,1.07,7.45,7.45,0,0,1,2.3,2.33h.73v-2.8h4.82v25.3a4.57,4.57,0,0,1-1.2,3.34A4.36,4.36,0,0,1,134,290H119.66V285.7h12.61a1.12,1.12,0,0,0,1.25-1.29v-6.15h-.73a8.07,8.07,0,0,1-1.29,1.48,6.78,6.78,0,0,1-2.16,1.27,9.21,9.21,0,0,1-3.35.52,9.84,9.84,0,0,1-4.91-1.27,9.38,9.38,0,0,1-3.57-3.66A11.6,11.6,0,0,1,116.17,270.86Zm11.19,6.32a6.13,6.13,0,0,0,4.44-1.7,6.31,6.31,0,0,0,1.76-4.75v-.43a6.33,6.33,0,0,0-1.74-4.78,6.16,6.16,0,0,0-4.46-1.68,6,6,0,0,0-6.24,6.46v.43a6.25,6.25,0,0,0,1.79,4.75A6.17,6.17,0,0,0,127.36,277.18Z" transform="translate(-35.4 -117.67)"/><path class="cls-1" d="M144.71,281.4V260.14h4.86v2.45h.73a3.39,3.39,0,0,1,1.59-1.93,5.48,5.48,0,0,1,2.67-.61h2.59v4.39h-2.67a5.18,5.18,0,0,0-3.49,1.14,4.36,4.36,0,0,0-1.33,3.51V281.4Z" transform="translate(-35.4 -117.67)"/><path class="cls-1" d="M167.56,282a9.91,9.91,0,0,1-4-.79,6.78,6.78,0,0,1-2.87-2.31,6.29,6.29,0,0,1-1.05-3.7,6,6,0,0,1,1.05-3.61,6.48,6.48,0,0,1,2.91-2.22,11.14,11.14,0,0,1,4.22-.75h6.15v-1.29a3.76,3.76,0,0,0-1-2.74,4.37,4.37,0,0,0-3.23-1,4.65,4.65,0,0,0-3.25,1,4.82,4.82,0,0,0-1.44,2.6l-4.56-1.5a8.76,8.76,0,0,1,1.65-3.06,8,8,0,0,1,3-2.21,11.44,11.44,0,0,1,4.65-.84,9.63,9.63,0,0,1,6.56,2.08,7.63,7.63,0,0,1,2.39,6.05V276q0,1.29,1.2,1.29h1.81v4.09h-3.49a4,4,0,0,1-2.54-.78,2.52,2.52,0,0,1-1-2.1v-.09H174a7.33,7.33,0,0,1-.9,1.46,5.1,5.1,0,0,1-2,1.49A8.47,8.47,0,0,1,167.56,282Zm.82-4a5.75,5.75,0,0,0,4-1.4,4.83,4.83,0,0,0,1.55-3.77v-.43h-5.85a4.45,4.45,0,0,0-2.59.69,2.29,2.29,0,0,0-1,2,2.51,2.51,0,0,0,1,2.09A4.54,4.54,0,0,0,168.38,278Z" transform="translate(-35.4 -117.67)"/><path class="cls-1" d="M192.39,281.4a4.45,4.45,0,0,1-3.29-1.23,4.5,4.5,0,0,1-1.23-3.33V264.23h-5.55v-4.09h5.55V253.3h4.95v6.84h6.11v4.09h-6.11V276c0,.86.4,1.29,1.21,1.29h4.26v4.09Z" transform="translate(-35.4 -117.67)"/><path class="cls-1" d="M212.92,282a11.36,11.36,0,0,1-5.61-1.35,9.51,9.51,0,0,1-3.79-3.83,11.8,11.8,0,0,1-1.36-5.79v-.52a12,12,0,0,1,1.34-5.81,9.46,9.46,0,0,1,3.74-3.81,11.18,11.18,0,0,1,5.55-1.35,10.62,10.62,0,0,1,5.43,1.35,9.41,9.41,0,0,1,3.61,3.81,12.12,12.12,0,0,1,1.29,5.72v1.77h-16a5.39,5.39,0,0,0,1.77,4,5.94,5.94,0,0,0,4.13,1.51,5.13,5.13,0,0,0,3.57-1.06,7.26,7.26,0,0,0,1.77-2.39l4.09,2.11a13.43,13.43,0,0,1-1.75,2.48,9.57,9.57,0,0,1-3,2.24A11,11,0,0,1,212.92,282Zm-5.72-13.56h10.89a4.78,4.78,0,0,0-1.62-3.35,5.49,5.49,0,0,0-3.72-1.25,5.19,5.19,0,0,0-5.55,4.6Z" transform="translate(-35.4 -117.67)"/><path class="cls-1" d="M225.92,281.4l8.26-30.13h9l8.26,30.13H246.1l-1.8-6.89H233.06l-1.81,6.89Zm8.35-11.62h8.82L239,254.5h-.73Z" transform="translate(-35.4 -117.67)"/><path class="cls-1" d="M255.27,281.4V251.27H265l5.86,26.64h.73l5.89-26.64h9.64V281.4h-5V255h-.73L275.5,281.4h-8.61L261,255h-.74V281.4Z" transform="translate(-35.4 -117.67)"/><path class="cls-1" d="M303.43,282a14.42,14.42,0,0,1-6.09-1.22,9.72,9.72,0,0,1-4.16-3.56,10.23,10.23,0,0,1-1.5-5.68v-1.12h5.12v1.12a5.37,5.37,0,0,0,1.81,4.44,7.45,7.45,0,0,0,4.82,1.46,7.23,7.23,0,0,0,4.6-1.25,3.94,3.94,0,0,0,1.55-3.23,3.18,3.18,0,0,0-.73-2.17,5.08,5.08,0,0,0-2.13-1.35,29.55,29.55,0,0,0-3.38-1l-1.29-.25a24.11,24.11,0,0,1-5.14-1.75,8.4,8.4,0,0,1-3.34-2.73,7.59,7.59,0,0,1-1.16-4.39,7.84,7.84,0,0,1,4.95-7.62,14,14,0,0,1,5.55-1,14.17,14.17,0,0,1,5.68,1.08,8.76,8.76,0,0,1,3.94,3.22,9.48,9.48,0,0,1,1.44,5.38v1.42h-5.12v-1.42a5.35,5.35,0,0,0-.73-3,4.22,4.22,0,0,0-2.07-1.63,8.54,8.54,0,0,0-3.14-.52,6.63,6.63,0,0,0-4,1,3.42,3.42,0,0,0-1.38,2.92,3.37,3.37,0,0,0,.62,2.05,4.55,4.55,0,0,0,1.85,1.37,16,16,0,0,0,3.08.93l1.29.3a27.86,27.86,0,0,1,5.42,1.74,9.3,9.3,0,0,1,3.64,2.78,7.16,7.16,0,0,1,1.31,4.48,8.26,8.26,0,0,1-1.4,4.77,9.29,9.29,0,0,1-3.91,3.23A14.21,14.21,0,0,1,303.43,282Z" transform="translate(-35.4 -117.67)"/><polygon class="cls-2" points="233.53 69.82 217.09 86.24 188.06 57.21 153.69 91.57 137.25 108.01 91.82 62.58 108.26 46.14 137.26 75.15 188.01 24.4 188.03 24.41 188.07 24.36 233.53 69.82"/><polygon class="cls-3" points="153.7 91.6 137.28 108.02 137.25 108.01 153.69 91.57 153.7 91.6"/><rect class="cls-4" x="124.08" y="186.1" width="23.23" height="64.27" transform="translate(-149.96 42.21) rotate(-45)"/><rect class="cls-5" x="86.25" y="168.41" width="23.23" height="23.98" transform="translate(-134.3 4.38) rotate(-45)"/><polygon class="cls-6" points="153.56 45.45 137.12 61.88 108.16 32.91 102.54 38.52 91.95 49.12 85.22 55.85 68.79 39.43 75.52 32.7 91.73 16.48 108.16 0.05 124.58 16.48 153.56 45.45"/><rect class="cls-7" x="123.7" y="125.87" width="23.23" height="0.08" transform="translate(-84.79 14.89) rotate(-45)"/><rect class="cls-8" x="151.75" y="114.29" width="0.08" height="23.23" transform="translate(-79.97 26.54) rotate(-45)"/></svg>