<svg xmlns="http://www.w3.org/2000/svg" xmlns:xlink="http://www.w3.org/1999/xlink" width="436" zoomAndPan="magnify" viewBox="0 0 327 114.749999" height="153" preserveAspectRatio="xMidYMid meet" version="1.0"><defs><g/><clipPath id="a7fb5803a9"><path d="M 0.355469 8.761719 L 46.007812 8.761719 L 46.007812 100 L 0.355469 100 Z M 0.355469 8.761719 " clip-rule="nonzero"/></clipPath><clipPath id="f77bbe418a"><rect x="0" width="242" y="0" height="79"/></clipPath></defs><g clip-path="url(#a7fb5803a9)"><path fill="#0081cc" d="M 88.332031 61.550781 C 90.121094 61.550781 91.589844 60.085938 91.589844 58.292969 L 91.589844 50.417969 C 91.589844 48.628906 90.121094 47.160156 88.332031 47.160156 L 84.949219 47.160156 C 83.160156 47.160156 81.261719 45.761719 80.734375 44.046875 L 77.847656 37.042969 C 77.003906 35.464844 77.347656 33.136719 78.613281 31.871094 L 81.003906 29.476562 C 82.269531 28.210938 82.273438 26.136719 81.003906 24.871094 L 75.4375 19.300781 C 74.171875 18.035156 72.097656 18.035156 70.832031 19.300781 L 68.4375 21.695312 C 67.171875 22.964844 64.839844 23.304688 63.265625 22.457031 L 56.257812 19.574219 C 54.546875 19.046875 53.144531 17.148438 53.144531 15.359375 L 53.144531 11.976562 C 53.144531 10.183594 51.679688 8.71875 49.890625 8.71875 L 42.015625 8.71875 C 40.222656 8.71875 38.757812 10.183594 38.757812 11.976562 L 38.757812 15.359375 C 38.757812 17.148438 37.355469 19.046875 35.644531 19.574219 L 28.640625 22.457031 C 27.0625 23.304688 24.734375 22.960938 23.46875 21.695312 L 21.074219 19.300781 C 19.804688 18.035156 17.734375 18.035156 16.46875 19.300781 L 10.898438 24.871094 C 9.632812 26.136719 9.632812 28.210938 10.898438 29.476562 L 13.292969 31.871094 C 14.5625 33.136719 14.902344 35.464844 14.054688 37.042969 L 11.171875 44.046875 C 10.644531 45.761719 8.746094 47.160156 6.957031 47.160156 L 3.574219 47.160156 C 1.785156 47.160156 0.320312 48.625 0.320312 50.417969 L 0.320312 58.292969 C 0.320312 60.085938 1.785156 61.550781 3.574219 61.550781 L 6.957031 61.550781 C 8.746094 61.550781 10.644531 62.953125 11.171875 64.664062 L 14.058594 71.671875 C 14.90625 73.246094 14.5625 75.574219 13.296875 76.84375 L 10.898438 79.238281 C 9.632812 80.503906 9.632812 82.574219 10.898438 83.84375 L 16.46875 89.410156 C 17.734375 90.675781 19.804688 90.675781 21.074219 89.410156 L 23.46875 87.015625 C 24.734375 85.75 27.0625 85.40625 28.640625 86.253906 L 35.644531 89.140625 C 37.359375 89.667969 38.757812 91.5625 38.757812 93.355469 L 38.757812 96.734375 C 38.757812 98.527344 40.222656 99.992188 42.015625 99.992188 L 49.890625 99.992188 C 51.683594 99.992188 53.148438 98.527344 53.148438 96.734375 L 53.148438 93.351562 C 53.148438 91.5625 54.546875 89.667969 56.257812 89.140625 L 63.265625 86.253906 C 64.84375 85.40625 67.171875 85.75 68.4375 87.015625 L 70.832031 89.410156 C 72.097656 90.675781 74.171875 90.675781 75.4375 89.410156 L 81.007812 83.84375 C 82.273438 82.574219 82.273438 80.503906 81.007812 79.234375 L 78.613281 76.84375 C 77.347656 75.574219 77.003906 73.246094 77.851562 71.667969 L 80.734375 64.664062 C 81.261719 62.953125 83.160156 61.550781 84.949219 61.550781 Z M 45.953125 73.132812 C 35.582031 73.132812 27.175781 64.726562 27.175781 54.355469 C 27.175781 43.988281 35.582031 35.582031 45.953125 35.582031 C 56.320312 35.582031 64.726562 43.988281 64.726562 54.355469 C 64.726562 64.726562 56.320312 73.132812 45.953125 73.132812 Z M 45.953125 73.132812 " fill-opacity="1" fill-rule="nonzero"/></g><g transform="matrix(1, 0, 0, 1, 51, 18)"><g clip-path="url(#f77bbe418a)"><g fill="#0081cc" fill-opacity="1"><g transform="translate(0.961719, 63.576843)"><g><path d="M 2.59375 -45.59375 L 2.59375 -51.890625 L 10.828125 -51.890625 L 10.828125 -45.59375 Z M 3.25 0 L 3.25 -38.921875 L 10.25 -38.921875 L 10.25 0 Z M 3.25 0 "/></g></g></g><g fill="#0081cc" fill-opacity="1"><g transform="translate(14.385809, 63.576843)"><g><path d="M 2.984375 0 L 2.984375 -38.921875 L 10.046875 -38.921875 L 10.046875 -35.09375 L 11.34375 -35.09375 C 12.082031 -36.476562 12.914062 -37.546875 13.84375 -38.296875 C 14.769531 -39.054688 16.101562 -39.4375 17.84375 -39.4375 C 20.21875 -39.4375 22.039062 -38.722656 23.3125 -37.296875 C 24.59375 -35.867188 25.234375 -33.488281 25.234375 -30.15625 L 25.234375 0 L 18.21875 0 L 18.21875 -30.671875 C 18.21875 -33.054688 17.140625 -34.25 14.984375 -34.25 C 13.984375 -34.25 13.007812 -33.945312 12.0625 -33.34375 C 11.113281 -32.738281 10.441406 -31.914062 10.046875 -30.875 L 10.046875 0 Z M 2.984375 0 "/></g></g></g><g fill="#0081cc" fill-opacity="1"><g transform="translate(41.558085, 63.576843)"><g><path d="M 16.921875 0.515625 C 12.898438 0.515625 10.066406 -0.226562 8.421875 -1.71875 C 6.785156 -3.207031 5.96875 -5.679688 5.96875 -9.140625 L 5.96875 -33.53125 L 2.78125 -33.53125 L 2.78125 -38.921875 L 6.03125 -38.921875 L 6.03125 -49.9375 L 13.234375 -49.9375 L 13.109375 -38.921875 L 19.265625 -38.921875 L 19.265625 -33.53125 L 12.96875 -33.53125 L 12.96875 -8.4375 C 12.96875 -7.050781 13.21875 -6.085938 13.71875 -5.546875 C 14.21875 -5.003906 15.285156 -4.734375 16.921875 -4.734375 C 17.484375 -4.734375 17.976562 -4.753906 18.40625 -4.796875 C 18.84375 -4.835938 19.34375 -4.859375 19.90625 -4.859375 L 19.90625 0.1875 C 19.476562 0.320312 19.003906 0.410156 18.484375 0.453125 C 17.960938 0.492188 17.441406 0.515625 16.921875 0.515625 Z M 16.921875 0.515625 "/></g></g></g><g fill="#0081cc" fill-opacity="1"><g transform="translate(61.467002, 63.576843)"><g><path d="M 17.3125 -14.203125 L 24.125 -14.203125 C 24.164062 -13.597656 24.195312 -12.796875 24.21875 -11.796875 C 24.238281 -10.804688 24.226562 -9.921875 24.1875 -9.140625 C 24.0625 -5.679688 23.207031 -3.207031 21.625 -1.71875 C 20.050781 -0.226562 17.46875 0.515625 13.875 0.515625 C 10.195312 0.515625 7.523438 -0.226562 5.859375 -1.71875 C 4.203125 -3.207031 3.285156 -5.679688 3.109375 -9.140625 C 3.066406 -10.398438 3.035156 -11.925781 3.015625 -13.71875 C 2.992188 -15.507812 2.984375 -17.378906 2.984375 -19.328125 C 2.984375 -21.273438 2.992188 -23.15625 3.015625 -24.96875 C 3.035156 -26.78125 3.066406 -28.335938 3.109375 -29.640625 C 3.328125 -33.140625 4.269531 -35.644531 5.9375 -37.15625 C 7.601562 -38.675781 10.226562 -39.4375 13.8125 -39.4375 C 17.363281 -39.4375 19.945312 -38.703125 21.5625 -37.234375 C 23.1875 -35.765625 24.0625 -33.320312 24.1875 -29.90625 C 24.226562 -29.34375 24.257812 -28.429688 24.28125 -27.171875 C 24.3125 -25.921875 24.3125 -24.503906 24.28125 -22.921875 C 24.257812 -21.347656 24.207031 -19.78125 24.125 -18.21875 L 10.046875 -18.21875 C 10.046875 -16.625 10.054688 -15.023438 10.078125 -13.421875 C 10.109375 -11.828125 10.144531 -10.164062 10.1875 -8.4375 C 10.1875 -7.09375 10.476562 -6.148438 11.0625 -5.609375 C 11.644531 -5.066406 12.582031 -4.796875 13.875 -4.796875 C 15.039062 -4.796875 15.894531 -5.066406 16.4375 -5.609375 C 16.976562 -6.148438 17.269531 -7.09375 17.3125 -8.4375 C 17.40625 -9.8125 17.40625 -11.734375 17.3125 -14.203125 Z M 13.8125 -34.109375 C 12.519531 -34.109375 11.59375 -33.835938 11.03125 -33.296875 C 10.46875 -32.765625 10.1875 -31.890625 10.1875 -30.671875 C 10.144531 -29.296875 10.109375 -28.007812 10.078125 -26.8125 C 10.054688 -25.625 10.046875 -24.425781 10.046875 -23.21875 L 17.375 -23.21875 C 17.425781 -24.945312 17.4375 -26.476562 17.40625 -27.8125 C 17.382812 -29.15625 17.351562 -30.109375 17.3125 -30.671875 C 17.269531 -31.890625 16.976562 -32.765625 16.4375 -33.296875 C 15.894531 -33.835938 15.019531 -34.109375 13.8125 -34.109375 Z M 13.8125 -34.109375 "/></g></g></g><g fill="#0081cc" fill-opacity="1"><g transform="translate(86.823438, 63.576843)"><g><path d="M 14.328125 11.796875 C 11.003906 11.796875 8.367188 11.285156 6.421875 10.265625 C 4.472656 9.253906 3.367188 7.882812 3.109375 6.15625 C 2.984375 5.507812 2.960938 4.863281 3.046875 4.21875 C 3.265625 2.007812 4.691406 0.691406 7.328125 0.265625 L 7.328125 -0.84375 C 4.992188 -1.320312 3.695312 -2.507812 3.4375 -4.40625 C 3.3125 -4.925781 3.3125 -5.46875 3.4375 -6.03125 C 3.519531 -6.894531 3.914062 -7.671875 4.625 -8.359375 C 5.34375 -9.054688 6.265625 -9.46875 7.390625 -9.59375 L 7.390625 -10.703125 C 4.578125 -12.046875 3.039062 -14.941406 2.78125 -19.390625 C 2.738281 -20.734375 2.71875 -21.921875 2.71875 -22.953125 C 2.71875 -23.992188 2.71875 -25.03125 2.71875 -26.0625 C 2.71875 -27.101562 2.738281 -28.296875 2.78125 -29.640625 C 3.039062 -33.140625 4.015625 -35.644531 5.703125 -37.15625 C 7.390625 -38.675781 10.070312 -39.4375 13.75 -39.4375 C 18.550781 -39.4375 21.6875 -38.070312 23.15625 -35.34375 L 24.1875 -35.34375 C 24.445312 -37.675781 25.921875 -38.867188 28.609375 -38.921875 L 28.609375 -33.53125 L 27.828125 -33.53125 C 25.703125 -33.53125 24.640625 -32.171875 24.640625 -29.453125 C 24.640625 -27.671875 24.640625 -26.207031 24.640625 -25.0625 C 24.640625 -23.914062 24.640625 -22.910156 24.640625 -22.046875 C 24.640625 -21.179688 24.617188 -20.296875 24.578125 -19.390625 C 24.359375 -15.890625 23.414062 -13.378906 21.75 -11.859375 C 20.09375 -10.347656 17.425781 -9.59375 13.75 -9.59375 C 13.363281 -9.59375 13.082031 -9.59375 12.90625 -9.59375 C 11.394531 -9.550781 10.367188 -9.347656 9.828125 -8.984375 C 9.285156 -8.617188 9.015625 -8.109375 9.015625 -7.453125 L 9.015625 -7.140625 C 9.054688 -6.398438 9.519531 -5.878906 10.40625 -5.578125 C 11.289062 -5.273438 12.773438 -5.101562 14.859375 -5.0625 C 18.578125 -4.96875 21.375 -4.359375 23.25 -3.234375 C 25.132812 -2.117188 26.25 -0.328125 26.59375 2.140625 C 26.632812 2.441406 26.664062 2.796875 26.6875 3.203125 C 26.707031 3.617188 26.675781 4.066406 26.59375 4.546875 C 26.25 7.304688 24.941406 9.203125 22.671875 10.234375 C 20.398438 11.273438 17.617188 11.796875 14.328125 11.796875 Z M 13.75 -14.921875 C 16.300781 -14.921875 17.640625 -16.148438 17.765625 -18.609375 C 17.941406 -22.242188 17.941406 -26.179688 17.765625 -30.421875 C 17.640625 -32.878906 16.300781 -34.109375 13.75 -34.109375 C 11.070312 -34.109375 9.6875 -32.878906 9.59375 -30.421875 C 9.46875 -26.179688 9.46875 -22.242188 9.59375 -18.609375 C 9.726562 -16.148438 11.113281 -14.921875 13.75 -14.921875 Z M 14.59375 6.875 C 18.3125 6.875 20.34375 5.921875 20.6875 4.015625 C 20.863281 3.503906 20.84375 2.921875 20.625 2.265625 C 20.445312 1.273438 19.859375 0.617188 18.859375 0.296875 C 17.867188 -0.0234375 16.445312 -0.210938 14.59375 -0.265625 C 12.78125 -0.304688 11.453125 -0.125 10.609375 0.28125 C 9.765625 0.695312 9.253906 1.425781 9.078125 2.46875 C 8.953125 3.03125 8.953125 3.59375 9.078125 4.15625 C 9.253906 5.144531 9.765625 5.84375 10.609375 6.25 C 11.453125 6.664062 12.78125 6.875 14.59375 6.875 Z M 14.59375 6.875 "/></g></g></g><g fill="#0081cc" fill-opacity="1"><g transform="translate(115.033395, 63.576843)"><g><path d="M 2.984375 0 L 2.984375 -38.921875 L 10.046875 -38.921875 L 10.046875 -34.640625 L 11.28125 -34.640625 C 11.582031 -36.273438 12.164062 -37.425781 13.03125 -38.09375 C 13.894531 -38.769531 15.019531 -39.109375 16.40625 -39.109375 C 16.84375 -39.109375 17.285156 -39.097656 17.734375 -39.078125 C 18.191406 -39.054688 18.550781 -39.023438 18.8125 -38.984375 L 18.8125 -33.53125 L 16.46875 -33.53125 C 14.3125 -33.53125 12.765625 -33.171875 11.828125 -32.453125 C 10.898438 -31.742188 10.304688 -30.695312 10.046875 -29.3125 L 10.046875 0 Z M 2.984375 0 "/></g></g></g><g fill="#0081cc" fill-opacity="1"><g transform="translate(133.191329, 63.576843)"><g><path d="M 9.40625 0.453125 C 6.894531 0.453125 5.054688 -0.191406 3.890625 -1.484375 C 2.722656 -2.785156 2.007812 -4.90625 1.75 -7.84375 C 1.75 -8.320312 1.738281 -8.84375 1.71875 -9.40625 C 1.695312 -9.96875 1.707031 -10.488281 1.75 -10.96875 C 1.925781 -13.425781 2.617188 -15.441406 3.828125 -17.015625 C 5.035156 -18.597656 7.109375 -20.039062 10.046875 -21.34375 C 11.085938 -21.8125 12.125 -22.25 13.15625 -22.65625 C 14.195312 -23.070312 15.28125 -23.453125 16.40625 -23.796875 L 16.40625 -30.421875 C 16.363281 -31.671875 16.101562 -32.597656 15.625 -33.203125 C 15.15625 -33.804688 14.25 -34.109375 12.90625 -34.109375 C 11.78125 -34.109375 10.957031 -33.847656 10.4375 -33.328125 C 9.914062 -32.816406 9.632812 -31.929688 9.59375 -30.671875 C 9.550781 -30.066406 9.53125 -29.125 9.53125 -27.84375 C 9.53125 -26.570312 9.550781 -25.550781 9.59375 -24.78125 L 2.78125 -24.78125 C 2.738281 -25.289062 2.707031 -26.078125 2.6875 -27.140625 C 2.664062 -28.203125 2.675781 -29.125 2.71875 -29.90625 C 2.851562 -33.226562 3.6875 -35.644531 5.21875 -37.15625 C 6.757812 -38.675781 9.390625 -39.4375 13.109375 -39.4375 C 15.742188 -39.4375 17.785156 -39.078125 19.234375 -38.359375 C 20.679688 -37.648438 21.707031 -36.515625 22.3125 -34.953125 C 22.914062 -33.398438 23.257812 -31.367188 23.34375 -28.859375 L 23.28125 0 L 16.28125 0 L 16.28125 -3.828125 L 15.3125 -3.828125 C 14.707031 -2.398438 13.957031 -1.328125 13.0625 -0.609375 C 12.175781 0.0976562 10.957031 0.453125 9.40625 0.453125 Z M 12.125 -4.671875 C 14.03125 -4.671875 15.4375 -5.726562 16.34375 -7.84375 L 16.34375 -18.9375 C 15.601562 -18.675781 14.851562 -18.394531 14.09375 -18.09375 C 13.34375 -17.789062 12.554688 -17.378906 11.734375 -16.859375 C 10.566406 -16.128906 9.773438 -15.273438 9.359375 -14.296875 C 8.953125 -13.328125 8.726562 -12.21875 8.6875 -10.96875 C 8.644531 -10.050781 8.644531 -9.179688 8.6875 -8.359375 C 8.90625 -5.898438 10.050781 -4.671875 12.125 -4.671875 Z M 12.125 -4.671875 "/></g></g></g><g fill="#0081cc" fill-opacity="1"><g transform="translate(158.028909, 63.576843)"><g><path d="M 16.921875 0.515625 C 12.898438 0.515625 10.066406 -0.226562 8.421875 -1.71875 C 6.785156 -3.207031 5.96875 -5.679688 5.96875 -9.140625 L 5.96875 -33.53125 L 2.78125 -33.53125 L 2.78125 -38.921875 L 6.03125 -38.921875 L 6.03125 -49.9375 L 13.234375 -49.9375 L 13.109375 -38.921875 L 19.265625 -38.921875 L 19.265625 -33.53125 L 12.96875 -33.53125 L 12.96875 -8.4375 C 12.96875 -7.050781 13.21875 -6.085938 13.71875 -5.546875 C 14.21875 -5.003906 15.285156 -4.734375 16.921875 -4.734375 C 17.484375 -4.734375 17.976562 -4.753906 18.40625 -4.796875 C 18.84375 -4.835938 19.34375 -4.859375 19.90625 -4.859375 L 19.90625 0.1875 C 19.476562 0.320312 19.003906 0.410156 18.484375 0.453125 C 17.960938 0.492188 17.441406 0.515625 16.921875 0.515625 Z M 16.921875 0.515625 "/></g></g></g><g fill="#0081cc" fill-opacity="1"><g transform="translate(177.937826, 63.576843)"><g><path d="M 17.3125 -14.203125 L 24.125 -14.203125 C 24.164062 -13.597656 24.195312 -12.796875 24.21875 -11.796875 C 24.238281 -10.804688 24.226562 -9.921875 24.1875 -9.140625 C 24.0625 -5.679688 23.207031 -3.207031 21.625 -1.71875 C 20.050781 -0.226562 17.46875 0.515625 13.875 0.515625 C 10.195312 0.515625 7.523438 -0.226562 5.859375 -1.71875 C 4.203125 -3.207031 3.285156 -5.679688 3.109375 -9.140625 C 3.066406 -10.398438 3.035156 -11.925781 3.015625 -13.71875 C 2.992188 -15.507812 2.984375 -17.378906 2.984375 -19.328125 C 2.984375 -21.273438 2.992188 -23.15625 3.015625 -24.96875 C 3.035156 -26.78125 3.066406 -28.335938 3.109375 -29.640625 C 3.328125 -33.140625 4.269531 -35.644531 5.9375 -37.15625 C 7.601562 -38.675781 10.226562 -39.4375 13.8125 -39.4375 C 17.363281 -39.4375 19.945312 -38.703125 21.5625 -37.234375 C 23.1875 -35.765625 24.0625 -33.320312 24.1875 -29.90625 C 24.226562 -29.34375 24.257812 -28.429688 24.28125 -27.171875 C 24.3125 -25.921875 24.3125 -24.503906 24.28125 -22.921875 C 24.257812 -21.347656 24.207031 -19.78125 24.125 -18.21875 L 10.046875 -18.21875 C 10.046875 -16.625 10.054688 -15.023438 10.078125 -13.421875 C 10.109375 -11.828125 10.144531 -10.164062 10.1875 -8.4375 C 10.1875 -7.09375 10.476562 -6.148438 11.0625 -5.609375 C 11.644531 -5.066406 12.582031 -4.796875 13.875 -4.796875 C 15.039062 -4.796875 15.894531 -5.066406 16.4375 -5.609375 C 16.976562 -6.148438 17.269531 -7.09375 17.3125 -8.4375 C 17.40625 -9.8125 17.40625 -11.734375 17.3125 -14.203125 Z M 13.8125 -34.109375 C 12.519531 -34.109375 11.59375 -33.835938 11.03125 -33.296875 C 10.46875 -32.765625 10.1875 -31.890625 10.1875 -30.671875 C 10.144531 -29.296875 10.109375 -28.007812 10.078125 -26.8125 C 10.054688 -25.625 10.046875 -24.425781 10.046875 -23.21875 L 17.375 -23.21875 C 17.425781 -24.945312 17.4375 -26.476562 17.40625 -27.8125 C 17.382812 -29.15625 17.351562 -30.109375 17.3125 -30.671875 C 17.269531 -31.890625 16.976562 -32.765625 16.4375 -33.296875 C 15.894531 -33.835938 15.019531 -34.109375 13.8125 -34.109375 Z M 13.8125 -34.109375 "/></g></g></g><g fill="#0081cc" fill-opacity="1"><g transform="translate(204.604455, 63.576843)"><g><path d="M 3.4375 0 L 3.4375 -51.890625 L 7.71875 -51.890625 L 7.71875 0 Z M 3.4375 0 "/></g></g></g><g fill="#0081cc" fill-opacity="1"><g transform="translate(215.499339, 63.576843)"><g><path d="M 19.78125 6.09375 C 17.445312 6.269531 15.671875 5.914062 14.453125 5.03125 C 13.242188 4.144531 12.46875 2.617188 12.125 0.453125 C 9.144531 0.453125 6.992188 -0.191406 5.671875 -1.484375 C 4.359375 -2.785156 3.675781 -4.953125 3.625 -7.984375 C 3.5 -14.160156 3.4375 -20.132812 3.4375 -25.90625 C 3.4375 -31.675781 3.5 -37.675781 3.625 -43.90625 C 3.675781 -46.9375 4.359375 -49.097656 5.671875 -50.390625 C 6.992188 -51.691406 9.144531 -52.34375 12.125 -52.34375 C 15.15625 -52.34375 17.316406 -51.691406 18.609375 -50.390625 C 19.910156 -49.097656 20.601562 -46.9375 20.6875 -43.90625 C 20.769531 -37.675781 20.8125 -31.675781 20.8125 -25.90625 C 20.8125 -20.132812 20.769531 -14.160156 20.6875 -7.984375 C 20.644531 -5.816406 20.265625 -4.113281 19.546875 -2.875 C 18.835938 -1.644531 17.707031 -0.796875 16.15625 -0.328125 C 16.457031 1.796875 17.664062 2.75 19.78125 2.53125 Z M 12.125 -3.25 C 13.644531 -3.25 14.726562 -3.550781 15.375 -4.15625 C 16.019531 -4.757812 16.34375 -5.816406 16.34375 -7.328125 C 16.5625 -13.679688 16.660156 -19.925781 16.640625 -26.0625 C 16.617188 -32.207031 16.519531 -38.375 16.34375 -44.5625 C 16.34375 -46.070312 16.019531 -47.128906 15.375 -47.734375 C 14.726562 -48.335938 13.644531 -48.640625 12.125 -48.640625 C 10.65625 -48.640625 9.597656 -48.335938 8.953125 -47.734375 C 8.304688 -47.128906 7.957031 -46.070312 7.90625 -44.5625 C 7.738281 -38.375 7.65625 -32.207031 7.65625 -26.0625 C 7.65625 -19.925781 7.738281 -13.679688 7.90625 -7.328125 C 7.957031 -5.816406 8.304688 -4.757812 8.953125 -4.15625 C 9.597656 -3.550781 10.65625 -3.25 12.125 -3.25 Z M 12.125 -3.25 "/></g></g></g></g></g></svg>