<svg id="Layer_1" data-name="Layer 1" xmlns="http://www.w3.org/2000/svg" xmlns:xlink="http://www.w3.org/1999/xlink" viewBox="0 0 451.52 451.52"><defs><style>.cls-1{fill:#231f20;}.cls-2{fill:url(#radial-gradient);}.cls-3{fill:url(#radial-gradient-2);}.cls-4{fill:url(#linear-gradient);}.cls-5{fill:url(#linear-gradient-2);}.cls-6{fill:url(#radial-gradient-3);}</style><radialGradient id="radial-gradient" cx="213.78" cy="425.7" r="136.02" gradientUnits="userSpaceOnUse"><stop offset="0" stop-color="#fff"/><stop offset="1" stop-color="#d1d3d4"/></radialGradient><radialGradient id="radial-gradient-2" cx="79.28" cy="110.33" r="0.07" xlink:href="#radial-gradient"/><linearGradient id="linear-gradient" x1="77.75" y1="445.51" x2="370.83" y2="445.51" gradientTransform="translate(697.91 601.93) rotate(135)" xlink:href="#radial-gradient"/><linearGradient id="linear-gradient-2" x1="225.74" y1="334.84" x2="330.16" y2="334.84" xlink:href="#radial-gradient"/><radialGradient id="radial-gradient-3" cx="77.75" cy="358.29" r="0" xlink:href="#radial-gradient"/></defs><circle class="cls-1" cx="225.76" cy="225.76" r="225.76"/><path class="cls-2" d="M328.79,561.72l-179.4-179.4v159H77.77V310.65l.1-.1a71.65,71.65,0,0,1,101.2.1L328.79,460.42A71.58,71.58,0,0,1,328.79,561.72Z" transform="translate(1.46 -200.27)"/><polygon class="cls-3" points="79.35 110.26 79.22 110.4 79.22 110.26 79.35 110.26"/><path class="cls-4" d="M260.11,274.08h0a0,0,0,0,1,0,0V545.31a71.63,71.63,0,0,1-71.63,71.63h0a0,0,0,0,1,0,0V345.71a71.63,71.63,0,0,1,71.63-71.63Z" transform="translate(69.33 718.86) rotate(-135)"/><polygon class="cls-5" points="330.16 361.45 225.74 361.45 277.04 308.23 327.54 358.73 330.16 361.45"/><path class="cls-6" d="M77.75,358.29" transform="translate(1.46 -200.27)"/></svg>