<svg id="Layer_1" data-name="Layer 1" xmlns="http://www.w3.org/2000/svg" xmlns:xlink="http://www.w3.org/1999/xlink" viewBox="0 0 339.29 197.98"><defs><style>.cls-1{fill:url(#radial-gradient);}.cls-2{fill:url(#radial-gradient-2);}.cls-3{fill:url(#linear-gradient);}.cls-4{fill:url(#linear-gradient-2);}.cls-5{fill:url(#radial-gradient-3);}.cls-6{fill:#fff;}</style><radialGradient id="radial-gradient" cx="94.46" cy="10.74" r="0.04" gradientUnits="userSpaceOnUse"><stop offset="0" stop-color="#fff"/><stop offset="1" stop-color="#d1d3d4"/></radialGradient><radialGradient id="radial-gradient-2" cx="292.23" cy="509.35" r="69.82" xlink:href="#radial-gradient"/><linearGradient id="linear-gradient" x1="222.42" y1="519.52" x2="372.86" y2="519.52" gradientTransform="translate(875.46 676.42) rotate(135)" xlink:href="#radial-gradient"/><linearGradient id="linear-gradient-2" x1="169.65" y1="125.73" x2="223.23" y2="125.73" xlink:href="#radial-gradient"/><radialGradient id="radial-gradient-3" cx="222.42" cy="474.75" r="0" xlink:href="#radial-gradient"/></defs><polygon class="cls-1" points="94.5 10.7 94.43 10.77 94.43 10.7 94.5 10.7"/><path class="cls-2" d="M351.28,579.17l-92.09-92.09v81.63H222.42V450.31l.07-.07a36.77,36.77,0,0,1,51.93.07l76.86,76.86A36.77,36.77,0,0,1,351.28,579.17Z" transform="translate(-127.99 -439.54)"/><path class="cls-3" d="M316,431.53h0a0,0,0,0,1,0,0V570.75a36.77,36.77,0,0,1-36.77,36.77h0a0,0,0,0,1,0,0V468.3A36.77,36.77,0,0,1,316,431.53Z" transform="translate(12.75 657.8) rotate(-135)"/><polyline class="cls-4" points="223.23 139.63 169.65 139.63 196.44 111.83"/><path class="cls-5" d="M222.42,474.75" transform="translate(-127.99 -439.54)"/><path class="cls-6" d="M129.47,599a4.49,4.49,0,0,1,0-6.66,5.58,5.58,0,0,1,3.88-1.34,5.71,5.71,0,0,1,3.88,1.28,4.07,4.07,0,0,1,1.48,3.25,4.48,4.48,0,0,1-1.48,3.45,5.51,5.51,0,0,1-3.88,1.36A5.58,5.58,0,0,1,129.47,599ZM129,603.1h8.78v25H129Z" transform="translate(-127.99 -439.54)"/><path class="cls-6" d="M167.25,605.46c1.89,1.85,2.84,4.63,2.84,8.36v14.32h-8.78V615.25q0-5.13-4.11-5.13a4.72,4.72,0,0,0-3.63,1.48,6.36,6.36,0,0,0-1.36,4.44v12.1h-8.78v-25h8.36v2.73a9.84,9.84,0,0,1,3.51-2.34,11.88,11.88,0,0,1,4.44-.8A10.3,10.3,0,0,1,167.25,605.46Z" transform="translate(-127.99 -439.54)"/><path class="cls-6" d="M192.87,627.13a9,9,0,0,1-2.71,1.06,14.74,14.74,0,0,1-3.39.37q-4.91,0-7.53-2.4T176.6,619v-8.41H173V604h3.65v-6.52h8.78V604h5.73v6.56h-5.73v8.31a3,3,0,0,0,.72,2.11,2.51,2.51,0,0,0,1.91.76,4.6,4.6,0,0,0,2.68-.79Z" transform="translate(-127.99 -439.54)"/><path class="cls-6" d="M221,617.84H202.75a5.11,5.11,0,0,0,2.15,3,7.23,7.23,0,0,0,4,1,8.64,8.64,0,0,0,3.12-.51,9.29,9.29,0,0,0,2.66-1.66l4.62,4.8q-3.66,4.07-10.68,4.07a17,17,0,0,1-7.71-1.66,12.84,12.84,0,0,1-5.2-17.95,12.34,12.34,0,0,1,4.92-4.6,15.81,15.81,0,0,1,13.86-.12,11.91,11.91,0,0,1,4.83,4.48,13.24,13.24,0,0,1,1.78,7C221.1,615.73,221.05,616.45,221,617.84Zm-16.61-7.76a5.18,5.18,0,0,0-1.73,3.14h10.25a5.18,5.18,0,0,0-1.73-3.14,5.55,5.55,0,0,0-6.79,0Z" transform="translate(-127.99 -439.54)"/><path class="cls-6" d="M252.1,603.1v20.47q0,7-3.79,10.47t-10.9,3.48a27.42,27.42,0,0,1-6.93-.83,16.25,16.25,0,0,1-5.5-2.45l3.19-6.14a11.2,11.2,0,0,0,3.86,2,15.46,15.46,0,0,0,4.59.72q3.47,0,5.09-1.53a5.94,5.94,0,0,0,1.61-4.52v-.84q-2.53,3-7.44,3a12.88,12.88,0,0,1-6.14-1.5,11.44,11.44,0,0,1-4.48-4.25,12.83,12.83,0,0,1,0-12.66,11.44,11.44,0,0,1,4.48-4.25,12.88,12.88,0,0,1,6.14-1.5q5.37,0,7.86,3.46v-3Zm-10.23,15.34a5.18,5.18,0,0,0,0-7.37,5.57,5.57,0,0,0-3.93-1.41,5.64,5.64,0,0,0-4,1.41,5.12,5.12,0,0,0,0,7.37,6.07,6.07,0,0,0,7.83,0Z" transform="translate(-127.99 -439.54)"/><path class="cls-6" d="M269.59,603.54a13.21,13.21,0,0,1,4.92-.85v7.9a16.26,16.26,0,0,0-2-.14,5.46,5.46,0,0,0-6,6.19v11.5h-8.78v-25h8.36v3A8.22,8.22,0,0,1,269.59,603.54Z" transform="translate(-127.99 -439.54)"/><path class="cls-6" d="M298.12,605.53q3.28,2.84,3.28,8.71v13.9h-8.18v-3.23q-1.89,3.65-7.39,3.65a11.49,11.49,0,0,1-5-1,7.43,7.43,0,0,1-3.22-2.75,7.29,7.29,0,0,1-1.08-3.95,6.42,6.42,0,0,1,2.72-5.52q2.73-2,8.41-2h5q-.22-4-5.31-4a12.35,12.35,0,0,0-3.65.58,9.77,9.77,0,0,0-3.14,1.6l-3-6a16.29,16.29,0,0,1,5.06-2.15,24,24,0,0,1,6-.76Q294.84,602.69,298.12,605.53ZM291,622.28a4.14,4.14,0,0,0,1.66-2.18v-2.17h-3.79q-3.82,0-3.83,2.54a2.23,2.23,0,0,0,.88,1.85,3.77,3.77,0,0,0,2.4.7A4.88,4.88,0,0,0,291,622.28Z" transform="translate(-127.99 -439.54)"/><path class="cls-6" d="M324.23,627.13a9,9,0,0,1-2.71,1.06,14.74,14.74,0,0,1-3.39.37q-4.9,0-7.53-2.4T308,619v-8.41h-3.65V604H308v-6.52h8.78V604h5.73v6.56h-5.73v8.31a3,3,0,0,0,.72,2.11,2.53,2.53,0,0,0,1.92.76,4.62,4.62,0,0,0,2.68-.79Z" transform="translate(-127.99 -439.54)"/><path class="cls-6" d="M352.32,617.84h-18.2a5.07,5.07,0,0,0,2.15,3,7.17,7.17,0,0,0,4,1,8.64,8.64,0,0,0,3.12-.51,9.29,9.29,0,0,0,2.66-1.66l4.62,4.8c-2.44,2.71-6,4.07-10.68,4.07a17,17,0,0,1-7.71-1.66,12.65,12.65,0,0,1-.28-22.55,15.81,15.81,0,0,1,13.86-.12,11.85,11.85,0,0,1,4.83,4.48,13.15,13.15,0,0,1,1.78,7C352.46,615.73,352.41,616.45,352.32,617.84Zm-16.61-7.76a5.18,5.18,0,0,0-1.73,3.14h10.26a5.24,5.24,0,0,0-1.74-3.14,5.55,5.55,0,0,0-6.79,0Z" transform="translate(-127.99 -439.54)"/><path class="cls-6" d="M375.56,628.14l-6.7-10-6.6,10H351.81l11.79-16.35-11.28-16h10.31l6.46,9.33,6.38-9.33h9.89l-11.28,15.62,12,16.72Z" transform="translate(-127.99 -439.54)"/><path class="cls-6" d="M410.29,604.28a11.56,11.56,0,0,1,4.43,4.53,15,15,0,0,1,0,13.63,11.7,11.7,0,0,1-4.43,4.53,12.38,12.38,0,0,1-6.22,1.59,9.34,9.34,0,0,1-7-2.63v11.18h-8.78v-34h8.36v2.5c1.63-2,4.1-2.91,7.39-2.91A12.38,12.38,0,0,1,410.29,604.28ZM406,620a7.18,7.18,0,0,0,0-8.73,5.28,5.28,0,0,0-7.57,0,7.18,7.18,0,0,0,0,8.73,5.3,5.3,0,0,0,7.57,0Z" transform="translate(-127.99 -439.54)"/><path class="cls-6" d="M432.28,603.54a13.21,13.21,0,0,1,4.92-.85v7.9a16.24,16.24,0,0,0-2-.14,5.46,5.46,0,0,0-6,6.19v11.5h-8.78v-25h8.36v3A8.22,8.22,0,0,1,432.28,603.54Z" transform="translate(-127.99 -439.54)"/><path class="cls-6" d="M445.89,626.9A12.39,12.39,0,0,1,439,615.58a12.36,12.36,0,0,1,6.87-11.26,17.09,17.09,0,0,1,14.57,0,12.3,12.3,0,0,1,5,4.58,13.33,13.33,0,0,1,0,13.38,12.39,12.39,0,0,1-5,4.62,16.77,16.77,0,0,1-14.55,0Zm11-6.91a6.21,6.21,0,0,0,1.48-4.41,6.09,6.09,0,0,0-1.48-4.35,5.36,5.36,0,0,0-7.58,0,6.13,6.13,0,0,0-1.47,4.35,6.25,6.25,0,0,0,1.47,4.41,5.31,5.31,0,0,0,7.58,0Z" transform="translate(-127.99 -439.54)"/></svg>