<svg id="Layer_1" data-name="Layer 1" xmlns="http://www.w3.org/2000/svg" xmlns:xlink="http://www.w3.org/1999/xlink" viewBox="0 0 150.44 139.97"><defs><style>.cls-1{fill:url(#radial-gradient);}.cls-2{fill:url(#radial-gradient-2);}.cls-3{fill:url(#linear-gradient);}.cls-4{fill:url(#linear-gradient-2);}.cls-5{fill:url(#radial-gradient-3);}</style><radialGradient id="radial-gradient" cx="0.04" cy="10.74" r="0.04" gradientUnits="userSpaceOnUse"><stop offset="0" stop-color="#fff"/><stop offset="1" stop-color="#d1d3d4"/></radialGradient><radialGradient id="radial-gradient-2" cx="292.23" cy="509.35" r="69.82" xlink:href="#radial-gradient"/><linearGradient id="linear-gradient" x1="222.42" y1="519.52" x2="372.86" y2="519.52" gradientTransform="translate(875.46 676.42) rotate(135)" xlink:href="#radial-gradient"/><linearGradient id="linear-gradient-2" x1="75.22" y1="125.73" x2="128.8" y2="125.73" xlink:href="#radial-gradient"/><radialGradient id="radial-gradient-3" cx="222.42" cy="474.75" r="0" xlink:href="#radial-gradient"/></defs><polygon class="cls-1" points="0.07 10.7 0 10.77 0 10.7 0.07 10.7"/><path class="cls-2" d="M351.28,579.17l-92.09-92.09v81.63H222.42V450.31l.07-.07a36.77,36.77,0,0,1,51.93.07l76.86,76.86A36.77,36.77,0,0,1,351.28,579.17Z" transform="translate(-222.42 -439.54)"/><path class="cls-3" d="M316,431.53h0a0,0,0,0,1,0,0V570.75a36.77,36.77,0,0,1-36.77,36.77h0a0,0,0,0,1,0,0V468.3A36.77,36.77,0,0,1,316,431.53Z" transform="translate(-81.68 657.8) rotate(-135)"/><polyline class="cls-4" points="128.8 139.63 75.22 139.63 102.01 111.83"/><path class="cls-5" d="M222.42,474.75" transform="translate(-222.42 -439.54)"/></svg>