<svg id="Layer_1" data-name="Layer 1" xmlns="http://www.w3.org/2000/svg" xmlns:xlink="http://www.w3.org/1999/xlink" viewBox="0 0 150.44 139.97"><defs><style>.cls-1{fill:url(#linear-gradient);}.cls-2{fill:url(#radial-gradient);}.cls-3{fill:url(#linear-gradient-2);}.cls-4{fill:url(#linear-gradient-3);}.cls-5{fill:url(#linear-gradient-4);}</style><linearGradient id="linear-gradient" y1="10.74" x2="0.07" y2="10.74" gradientUnits="userSpaceOnUse"><stop offset="0" stop-color="#ba006f"/><stop offset="1" stop-color="#ed125f"/></linearGradient><radialGradient id="radial-gradient" cx="292.23" cy="248.55" r="69.82" xlink:href="#linear-gradient"/><linearGradient id="linear-gradient-2" x1="450.09" y1="383.26" x2="486.85" y2="383.26" gradientTransform="matrix(1, 0, 0, -1.49, -170.83, 828.05)" xlink:href="#linear-gradient"/><linearGradient id="linear-gradient-3" x1="75.22" y1="125.73" x2="128.8" y2="125.73" xlink:href="#linear-gradient"/><linearGradient id="linear-gradient-4" x1="222.42" y1="213.94" x2="222.42" y2="213.94" xlink:href="#linear-gradient"/></defs><polygon class="cls-1" points="0.07 10.7 0 10.77 0 10.7 0.07 10.7"/><path class="cls-2" d="M351.28,318.36l-92.09-92.09V307.9H222.42V189.5l.07-.07a36.77,36.77,0,0,1,51.93.07l76.86,76.86A36.77,36.77,0,0,1,351.28,318.36Z" transform="translate(-222.42 -178.73)"/><path class="cls-3" d="M316,170.72h0a0,0,0,0,1,0,0V309.94a36.77,36.77,0,0,1-36.77,36.77h0a0,0,0,0,1,0,0V207.49A36.77,36.77,0,0,1,316,170.72Z" transform="translate(102.74 473.38) rotate(-135)"/><polyline class="cls-4" points="128.8 139.63 75.22 139.63 102.01 111.83"/><path class="cls-5" d="M222.42,213.94" transform="translate(-222.42 -178.73)"/></svg>