<svg id="Layer_1" data-name="Layer 1" xmlns="http://www.w3.org/2000/svg" xmlns:xlink="http://www.w3.org/1999/xlink" viewBox="0 0 339.29 197.98"><defs><style>.cls-1{fill:url(#linear-gradient);}.cls-2{fill:url(#radial-gradient);}.cls-3{fill:url(#linear-gradient-2);}.cls-4{fill:url(#linear-gradient-3);}.cls-5{fill:url(#linear-gradient-4);}.cls-6{fill:#ba006f;}</style><linearGradient id="linear-gradient" x1="94.43" y1="10.74" x2="94.5" y2="10.74" gradientUnits="userSpaceOnUse"><stop offset="0" stop-color="#ba006f"/><stop offset="1" stop-color="#ed125f"/></linearGradient><radialGradient id="radial-gradient" cx="292.23" cy="248.55" r="69.82" xlink:href="#linear-gradient"/><linearGradient id="linear-gradient-2" x1="450.09" y1="383.26" x2="486.85" y2="383.26" gradientTransform="matrix(1, 0, 0, -1.49, -170.83, 828.05)" xlink:href="#linear-gradient"/><linearGradient id="linear-gradient-3" x1="169.65" y1="125.73" x2="223.23" y2="125.73" xlink:href="#linear-gradient"/><linearGradient id="linear-gradient-4" x1="222.42" y1="213.94" x2="222.42" y2="213.94" xlink:href="#linear-gradient"/></defs><polygon class="cls-1" points="94.5 10.7 94.43 10.77 94.43 10.7 94.5 10.7"/><path class="cls-2" d="M351.28,318.36l-92.09-92.09V307.9H222.42V189.5l.07-.07a36.77,36.77,0,0,1,51.93.07l76.86,76.86A36.77,36.77,0,0,1,351.28,318.36Z" transform="translate(-127.99 -178.73)"/><path class="cls-3" d="M316,170.72h0a0,0,0,0,1,0,0V309.94a36.77,36.77,0,0,1-36.77,36.77h0a0,0,0,0,1,0,0V207.49A36.77,36.77,0,0,1,316,170.72Z" transform="translate(197.17 473.38) rotate(-135)"/><polyline class="cls-4" points="223.23 139.63 169.65 139.63 196.44 111.83"/><path class="cls-5" d="M222.42,213.94" transform="translate(-127.99 -178.73)"/><path class="cls-6" d="M129.47,338.18a4.48,4.48,0,0,1,0-6.65,5.53,5.53,0,0,1,3.88-1.34,5.7,5.7,0,0,1,3.88,1.27,4.07,4.07,0,0,1,1.48,3.25,4.48,4.48,0,0,1-1.48,3.45,5.47,5.47,0,0,1-3.88,1.36A5.58,5.58,0,0,1,129.47,338.18Zm-.51,4.11h8.78v25H129Z" transform="translate(-127.99 -178.73)"/><path class="cls-6" d="M167.25,344.65c1.89,1.85,2.84,4.63,2.84,8.36v14.33h-8.78v-12.9q0-5.12-4.11-5.12a4.72,4.72,0,0,0-3.63,1.47,6.36,6.36,0,0,0-1.36,4.44v12.11h-8.78v-25h8.36V345a9.68,9.68,0,0,1,3.51-2.33,11.89,11.89,0,0,1,4.44-.81A10.3,10.3,0,0,1,167.25,344.65Z" transform="translate(-127.99 -178.73)"/><path class="cls-6" d="M192.87,366.32a8.71,8.71,0,0,1-2.71,1.06,14.74,14.74,0,0,1-3.39.37q-4.91,0-7.53-2.4t-2.64-7.16v-8.41H173v-6.56h3.65V336.7h8.78v6.52h5.73v6.56h-5.73v8.31a3,3,0,0,0,.72,2.11A2.51,2.51,0,0,0,188,361a4.6,4.6,0,0,0,2.68-.79Z" transform="translate(-127.99 -178.73)"/><path class="cls-6" d="M221,357H202.75a5.08,5.08,0,0,0,2.15,3,7.23,7.23,0,0,0,4,1,8.64,8.64,0,0,0,3.12-.51,9.29,9.29,0,0,0,2.66-1.66l4.62,4.81q-3.66,4.06-10.68,4.06a17,17,0,0,1-7.71-1.66,12.84,12.84,0,0,1-5.2-17.95,12.34,12.34,0,0,1,4.92-4.6,15.81,15.81,0,0,1,13.86-.12,11.87,11.87,0,0,1,4.83,4.49,13.18,13.18,0,0,1,1.78,6.95C221.1,354.92,221.05,355.65,221,357Zm-16.61-7.76a5.18,5.18,0,0,0-1.73,3.14h10.25a5.18,5.18,0,0,0-1.73-3.14,5.55,5.55,0,0,0-6.79,0Z" transform="translate(-127.99 -178.73)"/><path class="cls-6" d="M252.1,342.29v20.47q0,7-3.79,10.47t-10.9,3.49a27.42,27.42,0,0,1-6.93-.84,16.43,16.43,0,0,1-5.5-2.44l3.19-6.15a11,11,0,0,0,3.86,2,15.46,15.46,0,0,0,4.59.72q3.47,0,5.09-1.52a6,6,0,0,0,1.61-4.53v-.84c-1.69,2-4.17,3-7.44,3a12.88,12.88,0,0,1-6.14-1.5,11.44,11.44,0,0,1-4.48-4.25,12.83,12.83,0,0,1,0-12.66,11.44,11.44,0,0,1,4.48-4.25,12.88,12.88,0,0,1,6.14-1.5q5.37,0,7.86,3.46v-3Zm-10.23,15.34a5.18,5.18,0,0,0,0-7.37,5.57,5.57,0,0,0-3.93-1.41,5.64,5.64,0,0,0-4,1.41,5.12,5.12,0,0,0,0,7.37,6,6,0,0,0,7.83,0Z" transform="translate(-127.99 -178.73)"/><path class="cls-6" d="M269.59,342.73a13.21,13.21,0,0,1,4.92-.85v7.9a18.54,18.54,0,0,0-2-.14,5.46,5.46,0,0,0-6,6.19v11.51h-8.78v-25h8.36v3A8.24,8.24,0,0,1,269.59,342.73Z" transform="translate(-127.99 -178.73)"/><path class="cls-6" d="M298.12,344.72c2.19,1.89,3.28,4.8,3.28,8.71v13.91h-8.18V364.1q-1.89,3.64-7.39,3.65a11.63,11.63,0,0,1-5-1,7.56,7.56,0,0,1-3.22-2.75,7.35,7.35,0,0,1-1.08-4,6.42,6.42,0,0,1,2.72-5.52q2.73-2,8.41-2h5q-.22-4-5.31-4a12.33,12.33,0,0,0-3.65.57,9.77,9.77,0,0,0-3.14,1.6l-3-6a16.29,16.29,0,0,1,5.06-2.15,24,24,0,0,1,6-.76Q294.84,341.88,298.12,344.72ZM291,361.47a4.12,4.12,0,0,0,1.66-2.17v-2.18h-3.79q-3.82,0-3.83,2.55a2.21,2.21,0,0,0,.88,1.84,3.71,3.71,0,0,0,2.4.7A4.88,4.88,0,0,0,291,361.47Z" transform="translate(-127.99 -178.73)"/><path class="cls-6" d="M324.23,366.32a8.71,8.71,0,0,1-2.71,1.06,14.74,14.74,0,0,1-3.39.37q-4.9,0-7.53-2.4T308,358.19v-8.41h-3.65v-6.56H308V336.7h8.78v6.52h5.73v6.56h-5.73v8.31a3,3,0,0,0,.72,2.11,2.53,2.53,0,0,0,1.92.76,4.62,4.62,0,0,0,2.68-.79Z" transform="translate(-127.99 -178.73)"/><path class="cls-6" d="M352.32,357h-18.2a5,5,0,0,0,2.15,3,7.17,7.17,0,0,0,4,1,8.64,8.64,0,0,0,3.12-.51,9.29,9.29,0,0,0,2.66-1.66l4.62,4.81c-2.44,2.71-6,4.06-10.68,4.06a17,17,0,0,1-7.71-1.66,12.65,12.65,0,0,1-.28-22.55,15.81,15.81,0,0,1,13.86-.12,11.81,11.81,0,0,1,4.83,4.49,13.09,13.09,0,0,1,1.78,6.95C352.46,354.92,352.41,355.65,352.32,357Zm-16.61-7.76a5.18,5.18,0,0,0-1.73,3.14h10.26a5.24,5.24,0,0,0-1.74-3.14,5.55,5.55,0,0,0-6.79,0Z" transform="translate(-127.99 -178.73)"/><path class="cls-6" d="M375.56,367.34l-6.7-10-6.6,10H351.81L363.6,351l-11.28-16h10.31l6.46,9.33,6.38-9.33h9.89l-11.28,15.62,12,16.73Z" transform="translate(-127.99 -178.73)"/><path class="cls-6" d="M410.29,343.47a11.56,11.56,0,0,1,4.43,4.53,15,15,0,0,1,0,13.63,11.63,11.63,0,0,1-4.43,4.53,12.38,12.38,0,0,1-6.22,1.59,9.34,9.34,0,0,1-7-2.63V376.3h-8.78v-34h8.36v2.5c1.63-1.94,4.1-2.91,7.39-2.91A12.38,12.38,0,0,1,410.29,343.47ZM406,359.18a7.18,7.18,0,0,0,0-8.73,5.28,5.28,0,0,0-7.57,0,7.18,7.18,0,0,0,0,8.73,5.3,5.3,0,0,0,7.57,0Z" transform="translate(-127.99 -178.73)"/><path class="cls-6" d="M432.28,342.73a13.21,13.21,0,0,1,4.92-.85v7.9a18.55,18.55,0,0,0-2-.14,5.46,5.46,0,0,0-6,6.19v11.51h-8.78v-25h8.36v3A8.24,8.24,0,0,1,432.28,342.73Z" transform="translate(-127.99 -178.73)"/><path class="cls-6" d="M445.89,366.09A12.39,12.39,0,0,1,439,354.77a12.33,12.33,0,0,1,6.87-11.25,17,17,0,0,1,14.57,0,12.27,12.27,0,0,1,5,4.57,13.33,13.33,0,0,1,0,13.38,12.39,12.39,0,0,1-5,4.62,16.77,16.77,0,0,1-14.55,0Zm11-6.91a6.21,6.21,0,0,0,1.48-4.41,6.09,6.09,0,0,0-1.48-4.35,5.36,5.36,0,0,0-7.58,0,6.13,6.13,0,0,0-1.47,4.35,6.25,6.25,0,0,0,1.47,4.41,5.31,5.31,0,0,0,7.58,0Z" transform="translate(-127.99 -178.73)"/></svg>