<svg id="Layer_1" data-name="Layer 1" xmlns="http://www.w3.org/2000/svg" xmlns:xlink="http://www.w3.org/1999/xlink" viewBox="0 0 553.97 80.64"><defs><style>.cls-1{fill:url(#radial-gradient);}.cls-2{fill:url(#radial-gradient-2);}.cls-3{fill:url(#linear-gradient);}.cls-4{fill:url(#linear-gradient-2);}.cls-5{fill:url(#radial-gradient-3);}.cls-6{font-size:70.76px;fill:#fff;font-family:SpaceGrotesk-SemiBold, Space Grotesk;font-weight:600;}.cls-7{letter-spacing:-0.01em;}.cls-8{letter-spacing:-0.02em;}.cls-9{letter-spacing:-0.01em;}.cls-10{letter-spacing:-0.03em;}.cls-11{letter-spacing:-0.02em;}</style><radialGradient id="radial-gradient" cx="33.23" cy="412.63" r="32.66" gradientUnits="userSpaceOnUse"><stop offset="0" stop-color="#fff"/><stop offset="1" stop-color="#d1d3d4"/></radialGradient><radialGradient id="radial-gradient-2" cx="0.02" cy="5.02" r="0.02" xlink:href="#radial-gradient"/><linearGradient id="linear-gradient" x1="0.57" y1="417.38" x2="70.94" y2="417.38" gradientTransform="translate(356.17 687.24) rotate(135)" xlink:href="#radial-gradient"/><linearGradient id="linear-gradient-2" x1="35.18" y1="58.93" x2="60.26" y2="58.93" xlink:href="#radial-gradient"/><radialGradient id="radial-gradient-3" cx="0.57" cy="396.44" r="0" xlink:href="#radial-gradient"/></defs><path class="cls-1" d="M60.85,445.29,17.77,402.21v38.18H.57V385l0,0a17.19,17.19,0,0,1,24.3,0l36,36A17.2,17.2,0,0,1,60.85,445.29Z" transform="translate(-0.57 -379.96)"/><polygon class="cls-2" points="0.03 5.01 0 5.04 0 5.01 0.03 5.01"/><path class="cls-3" d="M44.35,376.22h0a0,0,0,0,1,0,0v65.13a17.2,17.2,0,0,1-17.2,17.2h0a0,0,0,0,1,0,0V393.42A17.2,17.2,0,0,1,44.35,376.22Z" transform="translate(-234.67 357.83) rotate(-135)"/><polygon class="cls-4" points="60.26 65.32 35.18 65.32 47.5 52.54 59.63 64.67 60.26 65.32"/><path class="cls-5" d="M.57,396.44" transform="translate(-0.57 -379.96)"/><text class="cls-6" transform="translate(77.92 60.48)">i<tspan class="cls-7" x="18.47" y="0">n</tspan><tspan class="cls-8" x="60.99" y="0">t</tspan><tspan x="92.05" y="0">eg</tspan><tspan class="cls-9" x="178.38" y="0">r</tspan><tspan class="cls-10" x="205.12" y="0">a</tspan><tspan class="cls-11" x="243.47" y="0">t</tspan><tspan x="274.54" y="0">eXp</tspan><tspan class="cls-11" x="406.28" y="0">r</tspan><tspan x="432.68" y="0">o</tspan></text></svg>